<?xml version="1.0" encoding="iso-8859-1"?>
<!-- Generator: Adobe Illustrator 19.0.0, SVG Export Plug-In . SVG Version: 6.00 Build 0)  -->
<svg version="1.1" id="Capa_1" xmlns="http://www.w3.org/2000/svg" xmlns:xlink="http://www.w3.org/1999/xlink" x="0px" y="0px"
	 viewBox="0 0 512 512" style="enable-background:new 0 0 512 512;" xml:space="preserve">
<g>
	<g>
		<rect x="187.733" y="51.2" width="17.067" height="17.067"/>
	</g>
</g>
<g>
	<g>
		<rect x="119.467" y="51.2" width="17.067" height="17.067"/>
	</g>
</g>
<g>
	<g>
		<rect x="51.2" y="51.2" width="17.067" height="17.067"/>
	</g>
</g>
<g>
	<g>
		<path d="M473.6,0H38.4C17.229,0,0,17.229,0,38.4v64h512v-64C512,17.229,494.771,0,473.6,0z M85.333,76.8
			c0,4.71-3.823,8.533-8.533,8.533H42.667c-4.71,0-8.533-3.823-8.533-8.533V42.667c0-4.71,3.823-8.533,8.533-8.533H76.8
			c4.71,0,8.533,3.823,8.533,8.533V76.8z M153.6,76.8c0,4.71-3.823,8.533-8.533,8.533h-34.133c-4.71,0-8.533-3.823-8.533-8.533
			V42.667c0-4.71,3.823-8.533,8.533-8.533h34.133c4.71,0,8.533,3.823,8.533,8.533V76.8z M221.867,76.8
			c0,4.71-3.823,8.533-8.533,8.533H179.2c-4.71,0-8.533-3.823-8.533-8.533V42.667c0-4.71,3.823-8.533,8.533-8.533h34.133
			c4.71,0,8.533,3.823,8.533,8.533V76.8z"/>
	</g>
</g>
<g>
	<g>
		<path d="M0,119.467V473.6C0,494.771,17.229,512,38.4,512h209.067V119.467H0z M136.533,153.6c18.825,0,34.133,15.309,34.133,34.133
			s-15.309,34.133-34.133,34.133S102.4,206.558,102.4,187.733S117.709,153.6,136.533,153.6z M85.333,276.122
			c0-20.506,16.683-37.188,37.188-37.188h28.015c20.506,0,37.197,16.683,37.197,37.188v14.012c0,4.719-3.823,8.533-8.533,8.533
			H93.867c-4.71,0-8.533-3.814-8.533-8.533V276.122z M179.2,332.8c0,4.719-3.823,8.533-8.533,8.533H102.4
			c-4.71,0-8.533-3.814-8.533-8.533c0-4.719,3.823-8.533,8.533-8.533h68.267C175.377,324.267,179.2,328.081,179.2,332.8z
			 M170.667,477.867H102.4c-14.114,0-25.6-11.486-25.6-25.6c0-14.114,11.486-25.6,25.6-25.6h68.267c14.114,0,25.6,11.486,25.6,25.6
			C196.267,466.381,184.781,477.867,170.667,477.867z M93.867,401.067c0-4.719,3.823-8.533,8.533-8.533h68.267
			c4.71,0,8.533,3.814,8.533,8.533c0,4.719-3.823,8.533-8.533,8.533H102.4C97.69,409.6,93.867,405.786,93.867,401.067z
			 M187.733,375.467h-102.4c-4.71,0-8.533-3.814-8.533-8.533s3.823-8.533,8.533-8.533h102.4c4.71,0,8.533,3.814,8.533,8.533
			S192.444,375.467,187.733,375.467z"/>
	</g>
</g>
<g>
	<g>
		<path d="M414.165,345.301c-8.055-8.055-18.773-12.501-30.174-12.501c-11.401,0-22.11,4.446-30.174,12.501
			c-7.834,7.834-11.913,18.057-11.469,28.783c0.435,10.726,5.248,21.188,13.534,29.483l28.117,28.1l28.1-28.1
			c8.294-8.294,13.099-18.756,13.534-29.483C426.078,363.358,422.007,353.135,414.165,345.301z M409.6,384.111
			c0,9.353-7.603,16.947-16.947,16.947h-17.306c-9.344,0-16.947-7.603-16.947-16.947v-17.297c0-9.353,7.603-16.947,16.947-16.947
			h17.306c9.344,0,16.947,7.603,16.947,16.947V384.111z"/>
	</g>
</g>
<g>
	<g>
		<path d="M150.537,256h-28.015c-11.093,0-20.122,9.028-20.122,20.122v5.478h68.267v-5.478C170.667,265.02,161.638,256,150.537,256z
			"/>
	</g>
</g>
<g>
	<g>
		<circle cx="136.533" cy="187.733" r="17.067"/>
	</g>
</g>
<g>
	<g>
		<path d="M307.2,298.667v170.667h153.6V298.667H307.2z M442.692,374.784c-0.614,15.019-7.194,29.525-18.526,40.849l-34.133,34.133
			c-1.664,1.664-3.849,2.5-6.033,2.5c-2.185,0-4.369-0.836-6.033-2.5l-34.133-34.133c-11.332-11.324-17.911-25.83-18.526-40.849
			c-0.64-15.548,5.205-30.302,16.452-41.549c11.281-11.281,26.283-17.502,42.24-17.502c15.957,0,30.95,6.221,42.24,17.502
			C437.487,344.482,443.332,359.236,442.692,374.784z"/>
	</g>
</g>
<g>
	<g>
		<path d="M170.667,443.733H102.4c-4.702,0-8.533,3.823-8.533,8.533c0,4.71,3.831,8.533,8.533,8.533h68.267
			c4.702,0,8.533-3.823,8.533-8.533C179.2,447.556,175.369,443.733,170.667,443.733z"/>
	</g>
</g>
<g>
	<g>
		<polygon points="375.347,366.933 375.467,384.12 392.533,384 392.533,366.814 		"/>
	</g>
</g>
<g>
	<g>
		<path d="M264.533,119.467V512H473.6c21.171,0,38.4-17.229,38.4-38.4V119.467H264.533z M298.667,145.067h25.6
			c4.71,0,8.533,3.814,8.533,8.533c0,4.719-3.823,8.533-8.533,8.533h-25.6c-4.71,0-8.533-3.814-8.533-8.533
			C290.133,148.881,293.956,145.067,298.667,145.067z M298.667,179.2H409.6c4.71,0,8.533,3.814,8.533,8.533
			s-3.823,8.533-8.533,8.533H298.667c-4.71,0-8.533-3.814-8.533-8.533S293.956,179.2,298.667,179.2z M298.667,213.333h25.6
			c4.71,0,8.533,3.814,8.533,8.533s-3.823,8.533-8.533,8.533h-25.6c-4.71,0-8.533-3.814-8.533-8.533
			S293.956,213.333,298.667,213.333z M298.667,247.467H409.6c4.71,0,8.533,3.814,8.533,8.533s-3.823,8.533-8.533,8.533H298.667
			c-4.71,0-8.533-3.814-8.533-8.533S293.956,247.467,298.667,247.467z M477.867,477.867c0,4.719-3.823,8.533-8.533,8.533H298.667
			c-4.71,0-8.533-3.814-8.533-8.533V290.133c0-4.719,3.823-8.533,8.533-8.533h170.667c4.71,0,8.533,3.814,8.533,8.533V477.867z
			 M469.333,264.533h-25.6c-4.71,0-8.533-3.814-8.533-8.533s3.823-8.533,8.533-8.533h25.6c4.71,0,8.533,3.814,8.533,8.533
			S474.044,264.533,469.333,264.533z M469.333,230.4H358.4c-4.71,0-8.533-3.814-8.533-8.533s3.823-8.533,8.533-8.533h110.933
			c4.71,0,8.533,3.814,8.533,8.533S474.044,230.4,469.333,230.4z M469.333,196.267h-25.6c-4.71,0-8.533-3.814-8.533-8.533
			s3.823-8.533,8.533-8.533h25.6c4.71,0,8.533,3.814,8.533,8.533S474.044,196.267,469.333,196.267z M469.333,162.133H358.4
			c-4.71,0-8.533-3.814-8.533-8.533c0-4.719,3.823-8.533,8.533-8.533h110.933c4.71,0,8.533,3.814,8.533,8.533
			C477.867,158.319,474.044,162.133,469.333,162.133z"/>
	</g>
</g>
<g>
</g>
<g>
</g>
<g>
</g>
<g>
</g>
<g>
</g>
<g>
</g>
<g>
</g>
<g>
</g>
<g>
</g>
<g>
</g>
<g>
</g>
<g>
</g>
<g>
</g>
<g>
</g>
<g>
</g>
</svg>
